<svg xmlns="http://www.w3.org/2000/svg" viewBox="0 0 400 300">
  <defs>
    <linearGradient id="bg" x1="0" y1="0" x2="1" y2="1">
      <stop offset="0%" stop-color="#eff6ff"/>
      <stop offset="100%" stop-color="#f8fafc"/>
    </linearGradient>
  </defs>
  <rect width="400" height="300" fill="url(#bg)" rx="8"/>
  <!-- Person silhouette -->
  <circle cx="165" cy="95" r="22" fill="#2563eb" opacity="0.15"/>
  <circle cx="165" cy="86" r="13" fill="#2563eb" opacity="0.35"/>
  <path d="M140 115 Q140 100 165 100 Q190 100 190 115 L190 155 L140 155 Z" fill="#2563eb" opacity="0.15" rx="4"/>
  <!-- Arm reaching to device -->
  <path d="M188 125 Q210 120 225 110" fill="none" stroke="#2563eb" stroke-width="3" stroke-linecap="round" opacity="0.25"/>
  <!-- Device/tablet -->
  <rect x="215" y="70" width="90" height="130" rx="10" fill="#ffffff" stroke="#bfdbfe" stroke-width="2"/>
  <!-- Device screen -->
  <rect x="223" y="82" width="74" height="100" rx="4" fill="#2563eb" opacity="0.04"/>
  <!-- Screen content -->
  <rect x="223" y="82" width="74" height="20" rx="4" fill="#2563eb" opacity="0.08"/>
  <rect x="230" y="110" width="60" height="8" rx="3" fill="#2563eb" opacity="0.12"/>
  <rect x="230" y="124" width="60" height="8" rx="3" fill="#e2e8f0"/>
  <rect x="230" y="138" width="60" height="8" rx="3" fill="#2563eb" opacity="0.12"/>
  <rect x="230" y="152" width="60" height="8" rx="3" fill="#e2e8f0"/>
  <!-- Action indicator -->
  <rect x="235" y="166" width="26" height="10" rx="5" fill="#2563eb" opacity="0.2"/>
  <!-- Signal dots from device -->
  <circle cx="330" cy="100" r="3" fill="#2563eb" opacity="0.3"/>
  <circle cx="342" cy="90" r="3" fill="#2563eb" opacity="0.2"/>
  <circle cx="350" cy="78" r="3" fill="#2563eb" opacity="0.12"/>
  <!-- Decorative -->
  <circle cx="100" cy="220" r="4" fill="#bfdbfe"/>
  <circle cx="300" cy="230" r="4" fill="#bfdbfe"/>
</svg>