<svg xmlns="http://www.w3.org/2000/svg" viewBox="0 0 400 300">
  <defs>
    <linearGradient id="bg" x1="0" y1="0" x2="1" y2="1">
      <stop offset="0%" stop-color="#eff6ff"/>
      <stop offset="100%" stop-color="#f8fafc"/>
    </linearGradient>
  </defs>
  <rect width="400" height="300" fill="url(#bg)" rx="8"/>
  <!-- Browser window -->
  <rect x="55" y="40" width="290" height="220" rx="10" fill="#ffffff" stroke="#bfdbfe" stroke-width="2"/>
  <!-- Title bar -->
  <rect x="55" y="40" width="290" height="28" rx="10" fill="#f8fafc" stroke="#bfdbfe" stroke-width="1"/>
  <circle cx="75" cy="54" r="4" fill="#e2e8f0"/>
  <circle cx="89" cy="54" r="4" fill="#e2e8f0"/>
  <circle cx="103" cy="54" r="4" fill="#e2e8f0"/>
  <rect x="140" y="49" width="120" height="10" rx="5" fill="#e2e8f0"/>
  <!-- Hero area -->
  <rect x="70" y="80" width="255" height="80" rx="6" fill="#2563eb" opacity="0.07"/>
  <rect x="120" y="98" width="160" height="8" rx="4" fill="#2563eb" opacity="0.3"/>
  <rect x="140" y="114" width="120" height="5" rx="2" fill="#e2e8f0"/>
  <rect x="165" y="132" width="70" height="18" rx="6" fill="#2563eb" opacity="0.2"/>
  <!-- Content cards below hero -->
  <rect x="70" y="172" width="78" height="70" rx="5" fill="#ffffff" stroke="#bfdbfe" stroke-width="1"/>
  <rect x="78" y="180" width="62" height="28" rx="3" fill="#2563eb" opacity="0.06"/>
  <rect x="78" y="214" width="45" height="4" rx="2" fill="#e2e8f0"/>
  <rect x="78" y="224" width="55" height="4" rx="2" fill="#e2e8f0"/>
  <rect x="158" y="172" width="78" height="70" rx="5" fill="#ffffff" stroke="#bfdbfe" stroke-width="1"/>
  <rect x="166" y="180" width="62" height="28" rx="3" fill="#2563eb" opacity="0.06"/>
  <rect x="166" y="214" width="50" height="4" rx="2" fill="#e2e8f0"/>
  <rect x="166" y="224" width="55" height="4" rx="2" fill="#e2e8f0"/>
  <rect x="246" y="172" width="78" height="70" rx="5" fill="#ffffff" stroke="#bfdbfe" stroke-width="1"/>
  <rect x="254" y="180" width="62" height="28" rx="3" fill="#2563eb" opacity="0.06"/>
  <rect x="254" y="214" width="48" height="4" rx="2" fill="#e2e8f0"/>
  <rect x="254" y="224" width="56" height="4" rx="2" fill="#e2e8f0"/>
</svg>