<svg xmlns="http://www.w3.org/2000/svg" viewBox="0 0 400 300">
  <defs>
    <linearGradient id="bg" x1="0" y1="0" x2="1" y2="1">
      <stop offset="0%" stop-color="#eff6ff"/>
      <stop offset="100%" stop-color="#f8fafc"/>
    </linearGradient>
  </defs>
  <rect width="400" height="300" fill="url(#bg)" rx="8"/>
  <!-- Article card grid - row 1 -->
  <rect x="55" y="45" width="130" height="105" rx="8" fill="#ffffff" stroke="#bfdbfe" stroke-width="1.5"/>
  <rect x="63" y="53" width="114" height="45" rx="5" fill="#2563eb" opacity="0.07"/>
  <rect x="63" y="106" width="80" height="6" rx="3" fill="#2563eb" opacity="0.25"/>
  <rect x="63" y="118" width="100" height="4" rx="2" fill="#e2e8f0"/>
  <rect x="63" y="128" width="70" height="4" rx="2" fill="#e2e8f0"/>
  <rect x="215" y="45" width="130" height="105" rx="8" fill="#ffffff" stroke="#bfdbfe" stroke-width="1.5"/>
  <rect x="223" y="53" width="114" height="45" rx="5" fill="#2563eb" opacity="0.07"/>
  <rect x="223" y="106" width="85" height="6" rx="3" fill="#2563eb" opacity="0.25"/>
  <rect x="223" y="118" width="95" height="4" rx="2" fill="#e2e8f0"/>
  <rect x="223" y="128" width="75" height="4" rx="2" fill="#e2e8f0"/>
  <!-- Article card grid - row 2 -->
  <rect x="55" y="160" width="130" height="105" rx="8" fill="#ffffff" stroke="#bfdbfe" stroke-width="1.5"/>
  <rect x="63" y="168" width="114" height="45" rx="5" fill="#2563eb" opacity="0.07"/>
  <rect x="63" y="221" width="90" height="6" rx="3" fill="#2563eb" opacity="0.25"/>
  <rect x="63" y="233" width="105" height="4" rx="2" fill="#e2e8f0"/>
  <rect x="63" y="243" width="68" height="4" rx="2" fill="#e2e8f0"/>
  <rect x="215" y="160" width="130" height="105" rx="8" fill="#ffffff" stroke="#bfdbfe" stroke-width="1.5"/>
  <rect x="223" y="168" width="114" height="45" rx="5" fill="#2563eb" opacity="0.07"/>
  <rect x="223" y="221" width="78" height="6" rx="3" fill="#2563eb" opacity="0.25"/>
  <rect x="223" y="233" width="98" height="4" rx="2" fill="#e2e8f0"/>
  <rect x="223" y="243" width="72" height="4" rx="2" fill="#e2e8f0"/>
</svg>