<svg xmlns="http://www.w3.org/2000/svg" viewBox="0 0 400 300">
  <defs>
    <linearGradient id="bg" x1="0" y1="0" x2="1" y2="1">
      <stop offset="0%" stop-color="#eff6ff"/>
      <stop offset="100%" stop-color="#f8fafc"/>
    </linearGradient>
  </defs>
  <rect width="400" height="300" fill="url(#bg)" rx="8"/>
  <!-- Profile card -->
  <rect x="110" y="45" width="180" height="210" rx="12" fill="#ffffff" stroke="#bfdbfe" stroke-width="2"/>
  <!-- Avatar circle -->
  <circle cx="200" cy="105" r="35" fill="#2563eb" opacity="0.1"/>
  <circle cx="200" cy="95" r="14" fill="#2563eb" opacity="0.3"/>
  <path d="M175 120 Q175 108 200 108 Q225 108 225 120" fill="#2563eb" opacity="0.2"/>
  <!-- Name line -->
  <rect x="155" y="150" width="90" height="7" rx="3" fill="#2563eb" opacity="0.35"/>
  <!-- Detail lines -->
  <rect x="145" y="168" width="110" height="5" rx="2" fill="#e2e8f0"/>
  <!-- Stats row -->
  <rect x="125" y="190" width="45" height="40" rx="6" fill="#2563eb" opacity="0.06"/>
  <rect x="134" y="200" width="28" height="6" rx="3" fill="#2563eb" opacity="0.3"/>
  <rect x="136" y="212" width="22" height="4" rx="2" fill="#e2e8f0"/>
  <rect x="178" y="190" width="45" height="40" rx="6" fill="#2563eb" opacity="0.06"/>
  <rect x="187" y="200" width="28" height="6" rx="3" fill="#2563eb" opacity="0.3"/>
  <rect x="189" y="212" width="22" height="4" rx="2" fill="#e2e8f0"/>
  <rect x="231" y="190" width="45" height="40" rx="6" fill="#2563eb" opacity="0.06"/>
  <rect x="240" y="200" width="28" height="6" rx="3" fill="#2563eb" opacity="0.3"/>
  <rect x="242" y="212" width="22" height="4" rx="2" fill="#e2e8f0"/>
  <!-- Decorative elements -->
  <circle cx="70" cy="80" r="4" fill="#bfdbfe"/>
  <circle cx="330" cy="80" r="4" fill="#bfdbfe"/>
  <circle cx="70" cy="220" r="3" fill="#bfdbfe" opacity="0.6"/>
  <circle cx="330" cy="220" r="3" fill="#bfdbfe" opacity="0.6"/>
</svg>